# xmcd CD database file
#
# Track frame offsets:
#	150
#	22758
#	38095
#	57687
#	68204
#	88860
#	101564
#	127653
#	139510
#	154265
#	168690
#	190290
#	203564
#	222708
#	241749
#
# Disc length: 3481 seconds
#
# Revision: 0
# Processed by: cddbd v1.5.2PL0 Copyright (c) Steve Scherf et al.
# Submitted via: CDex 1.50
#
DISCID=d10d970f
DTITLE=레이 브라운 트리오 - Best of Winter Jazz
DYEAR=2001
DGENRE=Jazz
TTITLE0=01.White Christmas
TTITLE1=02. Happy Holiday
TTITLE2=03. Winter Wonderland
TTITLE3=04. O Christmas Tree
TTITLE4=05. Have Yourself a Merry Little Christmas
TTITLE5=06. Over the Rainbow
TTITLE6=07. Cheek to Cheek(with Louis Armstrong)
TTITLE7=08. Night and Day
TTITLE8=09. Blues in the Night
TTITLE9=10. I'm in the Mood for Love
TTITLE10=11. Rhapsody in Blue
TTITLE11=12. I Get a Kick Out of You
TTITLE12=13. The Other Woman
TTITLE13=14. La Vie En Rose
TTITLE14=15. Fly Me to the Moon
EXTD=YEAR: 2001
EXTT0=
EXTT1=
EXTT2=
EXTT3=
EXTT4=
EXTT5=
EXTT6=
EXTT7=
EXTT8=
EXTT9=
EXTT10=
EXTT11=
EXTT12=
EXTT13=
EXTT14=
PLAYORDER=
